<svg xmlns="http://www.w3.org/2000/svg" width="500" height="176.33" viewBox="0 0 500 176.33"><path fill="#FFF" d="M469.869 0H30.114c-1.15 0-2.299 0-3.449.004-.974.004-1.924.018-2.892.039-2.113.071-4.246.177-6.336.551-2.121.362-4.09.971-5.999 1.922a20.794 20.794 0 0 0-5.143 3.592 20.244 20.244 0 0 0-3.705 4.988c-.976 1.847-1.604 3.76-1.977 5.818-.395 2.027-.5 4.096-.572 6.146-.023.938-.032 1.855-.036 2.8C0 26.975 0 28.089 0 29.205v117.933c0 1.094 0 2.23.004 3.333.004.934.013 1.881.036 2.82.073 2.074.182 4.114.572 6.12.373 2.084 1.001 3.995 1.977 5.864.966 1.799 2.207 3.521 3.705 4.94 1.525 1.474 3.238 2.705 5.143 3.635 1.905.955 3.878 1.515 5.999 1.929 2.091.354 4.224.464 6.336.507.968.019 1.918.026 2.892.035 1.15.009 2.299.009 3.449.009h439.759c1.146 0 2.301 0 3.453-.009.959-.009 1.941-.017 2.918-.035 2.104-.043 4.234-.153 6.33-.507 2.094-.414 4.066-.974 6-1.929a19.444 19.444 0 0 0 5.123-3.635c1.492-1.42 2.762-3.142 3.721-4.94.984-1.869 1.605-3.78 1.979-5.864.373-2.006.506-4.046.561-6.12.035-.939.043-1.887.043-2.82V29.205c0-1.119 0-2.229-.008-3.349 0-.94-.01-1.857-.045-2.8-.053-2.05-.186-4.118-.559-6.146-.373-2.058-.994-3.971-1.98-5.818-.963-1.847-2.229-3.509-3.721-4.988a20.081 20.081 0 0 0-5.121-3.592c-1.934-.948-3.906-1.561-6.002-1.922-2.096-.379-4.227-.484-6.33-.551a179.61 179.61 0 0 0-2.916-.035C472.167 0 471.015 0 469.869 0z"/><path fill="#010101" d="M469.869 4.342l3.418.004a67.02 67.02 0 0 1 2.814.058c1.723.039 3.719.119 5.664.476 1.793.314 3.303.794 4.775 1.509a16.229 16.229 0 0 1 3.979 2.811 15.432 15.432 0 0 1 2.902 3.862c.736 1.42 1.234 2.884 1.555 4.629.346 1.865.439 3.812.479 5.465.027.913.035 1.83.035 2.755.01 1.102.01 2.187.01 3.297v117.934c0 1.084 0 2.212-.01 3.307 0 .911-.008 1.833-.035 2.737-.045 1.661-.133 3.607-.479 5.484-.316 1.705-.818 3.194-1.555 4.64a16.11 16.11 0 0 1-2.902 3.858 15.73 15.73 0 0 1-3.986 2.763c-1.465.768-2.975 1.224-4.76 1.543-1.969.326-4.057.46-5.654.49-.93.017-1.873.025-2.832.034-1.137.009-2.281.009-3.418.009H30.083c-1.133 0-2.26 0-3.401-.009-.923-.009-1.873-.018-2.805-.034-1.587-.035-3.682-.164-5.639-.49-1.796-.314-3.305-.775-4.779-1.543a15.461 15.461 0 0 1-3.978-2.763 16.36 16.36 0 0 1-2.898-3.858c-.732-1.445-1.233-2.935-1.551-4.648-.374-1.877-.451-3.814-.491-5.476a61.29 61.29 0 0 1-.061-2.737V25.907c.004-.917.014-1.834.061-2.751.04-1.649.117-3.588.491-5.469.318-1.737.819-3.205 1.551-4.63A15.726 15.726 0 0 1 9.485 9.2a15.962 15.962 0 0 1 3.978-2.815c1.469-.71 2.979-1.191 4.774-1.505 1.935-.357 3.935-.437 5.639-.472a70.265 70.265 0 0 1 2.833-.058l3.404-.004h439.755"/><g><path fill="#FFF" d="M76.82 56.849h-5.854l-2.328-6.056H57.981l-2.2 6.056h-5.71L60.455 30.19h5.692L76.82 56.849m-9.91-10.548l-3.673-9.893-3.601 9.893h7.274zM83.568 56.847l-7.783-19.312h5.365l3.637 9.856 1.055 3.292c.278-.836.454-1.389.527-1.655a46.12 46.12 0 0 1 .546-1.636l3.673-9.856h5.256L88.17 56.848h-4.602M102.789 43.428l-4.638-.836c.521-1.867 1.42-3.25 2.692-4.146 1.272-.898 3.165-1.346 5.674-1.346 2.278 0 3.976.27 5.091.809 1.116.54 1.901 1.224 2.355 2.054.454.831.682 2.355.682 4.574l-.055 5.964c0 1.697.083 2.95.247 3.756.163.807.469 1.67.917 2.591h-5.055a18.629 18.629 0 0 1-.492-1.509 9.251 9.251 0 0 0-.182-.6c-.873.848-1.806 1.485-2.8 1.908a8.01 8.01 0 0 1-3.183.637c-1.988 0-3.554-.539-4.701-1.618-1.145-1.079-1.718-2.443-1.718-4.092 0-1.09.261-2.062.782-2.918.521-.854 1.253-1.51 2.192-1.964.939-.454 2.293-.851 4.064-1.19 2.388-.449 4.043-.867 4.965-1.255v-.509c0-.982-.244-1.683-.728-2.101-.485-.417-1.401-.626-2.747-.626-.908 0-1.618.179-2.128.535-.507.358-.919.985-1.234 1.882m6.837 4.147c-.654.217-1.692.479-3.109.783-1.418.302-2.347.6-2.784.891-.666.473-1 1.071-1 1.799 0 .716.267 1.334.8 1.855.533.522 1.212.782 2.037.782.92 0 1.8-.304 2.637-.909.619-.46 1.024-1.024 1.218-1.692.134-.437.201-1.267.201-2.491v-1.018zM124.792 34.916h-5.11v-4.728h5.11v4.728zm0 21.931h-5.11V37.535h5.11v19.312zM130.03 30.188h5.11v26.659h-5.11zM144.197 43.428l-4.639-.836c.523-1.867 1.419-3.25 2.693-4.146 1.272-.898 3.163-1.346 5.673-1.346 2.279 0 3.977.27 5.092.809s1.899 1.224 2.355 2.054c.453.831.682 2.355.682 4.574l-.055 5.964c0 1.697.082 2.95.246 3.756.164.807.469 1.67.917 2.591h-5.054a17.498 17.498 0 0 1-.492-1.509 9.967 9.967 0 0 0-.182-.6c-.873.848-1.806 1.485-2.8 1.908a8.01 8.01 0 0 1-3.183.637c-1.988 0-3.554-.539-4.7-1.618-1.146-1.079-1.719-2.443-1.719-4.092 0-1.09.261-2.062.782-2.918.521-.854 1.251-1.51 2.191-1.964.939-.454 2.293-.851 4.063-1.19 2.388-.449 4.044-.867 4.965-1.255v-.509c0-.982-.243-1.683-.727-2.101-.484-.417-1.4-.626-2.747-.626-.909 0-1.618.179-2.127.535-.507.358-.92.985-1.234 1.882m6.837 4.147c-.653.217-1.691.479-3.109.783-1.419.302-2.346.6-2.783.891-.667.473-1 1.071-1 1.799 0 .716.267 1.334.799 1.855.534.522 1.213.782 2.038.782.921 0 1.8-.304 2.638-.909.619-.46 1.024-1.024 1.217-1.692.135-.437.201-1.267.201-2.491v-1.018zM160.872 56.849v-26.66h5.108v9.602c1.578-1.794 3.444-2.692 5.602-2.692 2.353 0 4.298.853 5.837 2.556 1.539 1.704 2.311 4.148 2.311 7.338 0 3.297-.785 5.838-2.356 7.62-1.57 1.782-3.476 2.673-5.72 2.673-1.103 0-2.19-.275-3.263-.827-1.073-.553-1.998-1.368-2.773-2.447v2.838h-4.746m5.073-10.076c0 1.999.315 3.479.945 4.438.885 1.357 2.062 2.036 3.529 2.036 1.126 0 2.087-.482 2.882-1.446.793-.963 1.192-2.482 1.192-4.555 0-2.207-.401-3.797-1.2-4.774-.801-.976-1.826-1.464-3.074-1.464-1.224 0-2.242.476-3.055 1.429-.813.952-1.219 2.397-1.219 4.336zM183.838 30.188h5.112v26.659h-5.112zM205.37 50.701l5.092.855c-.655 1.867-1.688 3.289-3.101 4.265s-3.178 1.463-5.301 1.463c-3.357 0-5.844-1.097-7.456-3.292-1.272-1.757-1.911-3.976-1.911-6.655 0-3.201.837-5.708 2.511-7.519 1.673-1.813 3.788-2.72 6.345-2.72 2.874 0 5.14.949 6.803 2.846 1.66 1.897 2.454 4.805 2.382 8.72h-12.803c.037 1.516.449 2.695 1.237 3.537.788.842 1.771 1.264 2.947 1.264.799 0 1.473-.218 2.018-.655.547-.436.958-1.139 1.237-2.109m.291-5.164c-.037-1.479-.418-2.604-1.146-3.374s-1.611-1.155-2.653-1.155c-1.115 0-2.037.405-2.765 1.218-.729.812-1.086 1.916-1.074 3.31h7.638zM229.064 43.428l-4.637-.836c.521-1.867 1.419-3.25 2.691-4.146 1.273-.898 3.164-1.346 5.673-1.346 2.28 0 3.977.27 5.092.809 1.116.54 1.901 1.224 2.356 2.054.455.831.682 2.355.682 4.574l-.054 5.964c0 1.697.081 2.95.244 3.756.164.807.469 1.67.919 2.591h-5.055a18.236 18.236 0 0 1-.492-1.509 9.251 9.251 0 0 0-.182-.6c-.873.848-1.806 1.485-2.8 1.908a8.007 8.007 0 0 1-3.183.637c-1.988 0-3.556-.539-4.7-1.618-1.146-1.079-1.72-2.443-1.72-4.092 0-1.09.261-2.062.784-2.918a5.102 5.102 0 0 1 2.19-1.964c.939-.454 2.294-.851 4.064-1.19 2.389-.449 4.044-.867 4.966-1.255v-.509c0-.982-.243-1.683-.729-2.101-.484-.417-1.399-.626-2.745-.626-.911 0-1.618.179-2.128.535-.509.358-.92.985-1.236 1.882m6.838 4.147c-.655.217-1.691.479-3.111.783-1.417.302-2.345.6-2.781.891-.668.473-1.001 1.071-1.001 1.799 0 .716.268 1.334.8 1.855.532.522 1.213.782 2.038.782.921 0 1.799-.304 2.637-.909.618-.46 1.025-1.024 1.217-1.692.134-.437.202-1.267.202-2.491v-1.018zM254.816 37.535v4.074h-3.492v7.783c0 1.575.033 2.495.1 2.754.066.261.219.477.455.646.236.171.523.256.863.256.473 0 1.158-.164 2.055-.492l.436 3.964c-1.188.509-2.533.764-4.035.764-.924 0-1.754-.154-2.492-.463-.74-.309-1.283-.708-1.627-1.2-.346-.491-.586-1.155-.719-1.991-.109-.594-.164-1.794-.164-3.601V41.61h-2.345v-4.074h2.345v-3.837l5.129-2.982v6.819h3.491"/><path fill-rule="evenodd" clip-rule="evenodd" fill="#F8991D" d="M185.454 134.101c-15.146 11.252-37.153 17.239-56.087 17.239-26.539 0-50.414-9.846-68.506-26.281-1.422-1.286-.147-3.049 1.559-2.041 19.51 11.399 43.621 18.285 68.546 18.285 16.806 0 35.298-3.52 52.292-10.76 2.567-1.096 4.718 1.707 2.196 3.558"/><path fill-rule="evenodd" clip-rule="evenodd" fill="#F8991D" d="M191.786 126.853c-1.95-2.476-12.833-1.169-17.716-.578-1.496.179-1.72-1.126-.383-2.059 8.693-6.134 22.91-4.368 24.565-2.311 1.657 2.06-.439 16.393-8.578 23.248-1.255 1.047-2.436.464-1.887-.896 1.83-4.603 5.942-14.901 3.999-17.404"/><path fill-rule="evenodd" clip-rule="evenodd" fill="#FFF" d="M174.408 80.906v-5.955c0-.899.686-1.515 1.498-1.515h26.562c.848 0 1.527.631 1.527 1.515v5.093c0 .861-.723 1.976-2.008 3.75l-13.743 19.743c5.116-.124 10.501.649 15.137 3.285 1.057.577 1.35 1.463 1.412 2.326v6.343c0 .883-.951 1.881-1.956 1.355-8.161-4.298-19.018-4.78-28.061.053-.919.496-1.885-.487-1.885-1.373v-6.05c0-.964.017-2.604.986-4.086l15.938-22.984H175.94c-.846.001-1.532-.601-1.532-1.5M77.539 118.102h-8.086c-.761-.04-1.381-.62-1.447-1.356l.012-41.684c0-.83.683-1.501 1.553-1.501h7.524c.796.039 1.43.633 1.465 1.393v5.439h.161c1.956-5.264 5.657-7.716 10.624-7.716 5.062 0 8.231 2.452 10.489 7.716 1.958-5.264 6.413-7.716 11.16-7.716 3.402 0 7.101 1.393 9.359 4.565 2.552 3.512 2.043 8.585 2.043 13.053l-.024 26.309c0 .843-.678 1.499-1.552 1.499h-8.074c-.806-.054-1.439-.693-1.439-1.499V94.52c0-1.767.143-6.145-.23-7.815-.611-2.801-2.41-3.592-4.756-3.592-1.958 0-4.006 1.32-4.829 3.419-.827 2.099-.743 5.603-.743 7.987v22.083c0 .843-.71 1.499-1.57 1.499h-8.068c-.816-.054-1.453-.693-1.453-1.499l-.011-22.082c0-4.661.757-11.496-4.973-11.496-5.795 0-5.583 6.657-5.583 11.496v22.083c0 .842-.687 1.499-1.552 1.499M226.933 81.172c-5.963 0-6.329 8.16-6.329 13.257 0 5.076-.069 15.972 6.257 15.972 6.252 0 6.557-8.783 6.557-14.135 0-3.514-.146-7.722-1.196-11.059-.917-2.888-2.714-4.035-5.289-4.035m-.071-8.497c11.982 0 18.475 10.35 18.475 23.495 0 12.725-7.159 22.809-18.475 22.809-11.753 0-18.17-10.342-18.17-23.232-.001-12.99 6.477-23.072 18.17-23.072M260.894 118.102h-8.051c-.814-.054-1.453-.693-1.453-1.499l-.014-41.691c.072-.752.74-1.352 1.553-1.352h7.49c.705.039 1.287.509 1.443 1.158v6.377h.145c2.268-5.707 5.424-8.419 11.016-8.419 3.613 0 7.176 1.308 9.428 4.893 2.117 3.352 2.117 8.963 2.117 12.995v26.229c-.09.746-.76 1.309-1.559 1.309h-8.102a1.519 1.519 0 0 1-1.43-1.309V94.161c0-4.566.535-11.23-5.055-11.23-1.965 0-3.773 1.322-4.674 3.331-1.131 2.549-1.281 5.094-1.281 7.9v22.441c-.022.842-.712 1.499-1.573 1.499M161.38 117.996c-.524.494-1.302.529-1.903.188-2.677-2.236-3.172-3.276-4.633-5.411-4.438 4.545-7.576 5.909-13.33 5.909-6.806 0-12.09-4.213-12.09-12.66 0-6.586 3.561-11.067 8.624-13.269 4.387-1.944 10.505-2.292 15.19-2.821v-1.056c0-1.919.164-4.214-.985-5.886-.992-1.486-2.875-2.103-4.527-2.103-3.089 0-5.819 1.587-6.502 4.865-.126.737-.673 1.458-1.401 1.497l-7.821-.837c-.667-.162-1.416-.69-1.213-1.724 1.796-9.526 10.381-12.419 18.063-12.419 3.929 0 9.08 1.055 12.182 4.037 3.935 3.699 3.542 8.619 3.542 13.982v12.646c0 3.818 1.565 5.481 3.047 7.529.501.74.633 1.62-.016 2.155-1.662 1.387-4.587 3.963-6.21 5.395l-.017-.017m-8.142-19.798c0 3.176.075 5.808-1.514 8.624-1.288 2.283-3.31 3.686-5.581 3.686-3.112 0-4.921-2.367-4.921-5.901 0-6.894 6.165-8.173 12.015-8.173v1.764zM55.471 117.996c-.521.494-1.302.529-1.908.188-2.697-2.236-3.167-3.276-4.637-5.411-4.436 4.545-7.566 5.909-13.327 5.909-6.786 0-12.084-4.213-12.084-12.66 0-6.586 3.563-11.067 8.618-13.269 4.387-1.944 10.505-2.292 15.198-2.821v-1.056c0-1.919.144-4.214-.993-5.886-.98-1.486-2.869-2.103-4.528-2.103-3.085 0-5.836 1.587-6.5 4.865-.141.737-.672 1.458-1.397 1.497l-7.845-.837c-.65-.162-1.384-.69-1.198-1.724 1.805-9.526 10.38-12.419 18.069-12.419 3.931 0 9.078 1.055 12.159 4.037 3.938 3.699 3.565 8.619 3.565 13.982v12.646c0 3.818 1.562 5.481 3.05 7.529.507.74.635 1.62-.02 2.155a337.355 337.355 0 0 0-6.202 5.395l-.02-.017M47.33 98.198c0 3.176.065 5.808-1.506 8.624-1.295 2.283-3.337 3.686-5.604 3.686-3.099 0-4.911-2.367-4.911-5.901 0-6.894 6.163-8.173 12.021-8.173v1.764z"/><path fill="#FFF" d="M395.419 109.384c.09-.178.367-.362.551-.362.182 0 .459.093.732.185 4.043 1.995 8.086 3.088 11.205 3.088 4.41 0 7.346-2.636 7.346-6.536 0-3.088-1.562-4.901-5.875-6.894-6.156-2.817-8.086-3.815-10.289-5.632-2.842-2.275-4.227-5.086-4.227-8.625 0-7.352 5.789-12.618 13.965-12.618 4.775 0 11.844 2.272 11.844 3.815 0 .178 0 .178-.18.632l-1.654 3.36c-.186.274-.553.545-.83.545-.18 0-.367-.09-.732-.182-3.492-1.635-6.154-2.358-8.631-2.358-4.41 0-6.98 2.269-6.98 6.077 0 1.727.645 3.356 1.836 4.451 1.289 1.178 1.289 1.178 9.639 5.174 6.799 3.265 9.182 6.26 9.182 11.709 0 7.717-5.873 12.892-14.596 12.892-4.592 0-9.826-1.363-13.59-3.544-.457-.272-.555-.452-.555-.816 0-.179 0-.179.098-.365l1.741-3.996M430.046 75.129c0-.92.096-1.103 1.01-1.103h4.865c.828 0 1.014.183 1.014 1.103v41.382c0 .923-.74 1.592-1.568 1.592h-3.881c-.828 0-1.439-.722-1.439-1.645V75.129M474.375 82.032c-.277.46-.461.644-.734.644-.188 0-.459-.096-.736-.366-4.498-3.307-6.334-4.136-9.459-4.136-7.344 0-11.107 5.787-11.107 17.076 0 11.481 3.393 17.178 10.191 17.178 3.672 0 5.6-.83 10.836-4.501.275-.185.455-.278.643-.278.275 0 .455.187.643.56l1.373 3.486c.092.271.279.824.279.914 0 .461-.461 1.011-1.471 1.75-3.76 2.751-8.354 4.311-12.855 4.311-10.924 0-17.352-8.354-17.352-22.312 0-15.062 7.068-24.336 18.637-24.336 3.949 0 7.811 1.195 11.201 3.585 1.473 1.008 2.023 1.65 2.023 2.294l-.092.551-2.02 3.58"/><path fill-rule="evenodd" clip-rule="evenodd" fill="#FFF" d="M347.738 86.708c0-5.201 0-14.03-11.807-14.03-4.609 0-8.623 3.132-10.633 7.015-1.426-5.035-4.521-7.015-9.715-7.015-4.258 0-8.82 2.223-10.746 6.103v-3.583c0-.802-.635-1.442-1.451-1.489h-4.078c-.811 0-1.482.594-1.551 1.347v41.492c0 .803.65 1.439 1.469 1.492h4.08c.811 0 1.48-.596 1.547-1.349l-.012-29.391.012.232c0-6.938 5.119-8.916 8.383-8.916 4.938 0 5.836 4.027 5.988 7.31v30.932c.146.668.793 1.193 1.613 1.241h3.949c.811 0 1.465-.498 1.535-1.122V87.338c.102-6.76 5.117-8.72 8.35-8.72 5.041 0 5.877 4.204 6.006 7.525v30.696c0 .596.535 1.062 1.225 1.188l-.01.05h4.299c.812 0 1.479-.494 1.547-1.123l-.002-8.323h.002V86.708M356.968 111.521c.855 2.307 4.186 7.021 10.902 7.021 6.297 0 9.959-2.225 11.852-6.109v3.583c0 .801.621 1.446 1.428 1.493h4.01c.801 0 1.459-.595 1.527-1.349V74.67c0-.806-.639-1.443-1.447-1.494h-4.014c-.795 0-1.455.593-1.52 1.348l.016 29.389-.016-.231c0 6.935-7.664 8.915-10.875 8.915-4.855 0-5.736-4.025-5.891-7.31v-30.93c-.146-.667-.783-1.196-1.586-1.243h-3.889c-.793 0-1.439.496-1.508 1.123v29.642c.001-.001.154 5.346 1.011 7.642"/><path fill="#FFF" d="M435.921 55.57h-4.865c-.914 0-1.01.165-1.01.991v4.906c0 .826.184.991 1.012.991h4.867c.916 0 1.01-.166 1.01-.991v-4.906c0-.827-.182-.991-1.014-.991"/><path fill="#F8991D" d="M297.445 55.517h38.582v6.784h-38.582zM297.445 45.342h38.582v6.784h-38.582zM297.445 35.167h38.582v6.784h-38.582zM297.445 24.99h38.582v6.784h-38.582zM339.371 55.517h38.582v6.784h-38.582zM339.371 45.342h38.582v6.784h-38.582zM381.345 55.517h38.584v6.784h-38.584zM381.345 45.342h38.584v6.784h-38.584zM381.345 35.167h38.584v6.784h-38.584z"/></g></svg>